<svg viewBox="0 0 156 129" xmlns="http://www.w3.org/2000/svg"><g fill="none"><path d="M90.9 128.1c46.8-.2 64.1 0 64.5-18.4.2-11.6-.7-42.4-6.3-58.4-8.8-25.1-33.3-34.4-55.1-34.4-22.2 0-34.8 9-46.4 22.8v-.2c-18.9 23.8-16.3 72.8-11.7 80.1 5.4 8.5 14.4 8.7 55 8.5z" fill="#E13293"/><path d="M85 48.7L37.4 60s11-41.7 13.3-50.4c2.3-8.7 6.5-12.5 12-6.9 5.4 5.6 22.3 23 22.3 23v23zm18.8 0L151.4 60s-11-41.7-13.3-50.4c-2.4-8.7-6.5-12.5-12-6.9-5.4 5.6-22.3 23-22.3 23v23z" fill="#E13293"/><path d="M128.7 44.2c0 2.3-3.4.4-7.5.4s-7.5 1.9-7.5-.4 3.4-4.2 7.5-4.2 7.5 1.9 7.5 4.2zm-54.4 0c0 2.3-3.4.4-7.5.4s-7.5 1.9-7.5-.4 3.4-4.2 7.5-4.2 7.5 1.9 7.5 4.2zM98.1 51c0-6.3-1.9-3.6-4.1-3.6-2.3 0-4.1-2.7-4.1 3.6 0 6.3 1.9 6.2 4.1 6.2 2.2 0 4.1.1 4.1-6.2z" fill="#FFF"/><path d="M82.2 116c-14.2 0-28.7.2-42.7-2.5-10.1-1.9-26.2-5.8-27.5-18.4-.8-7.6-12.8-7.7-12 0 1.7 17.1 16.5 25.4 31.9 29 16.4 3.8 33.6 3.8 50.4 3.8 7.7.1 7.7-11.9-.1-11.9z" fill="#E13293"/><path d="M62.4 93.4c0 4.8-3.2 8.6-7.2 8.6S48 94.1 48 89.4c0-4.8 3.2 9.4 7.2 9.4s7.2-10.1 7.2-5.4zm77.4-4c0 4.8-3.2 12.6-7.2 12.6s-7.2-3.9-7.2-8.6c0-4.8 3.2 3.4 7.2 3.4s7.2-12.1 7.2-7.4z" fill="#9A2C78"/></g></svg>
